# xmcd
#
# Track frame offsets:
#	150
#	16475
#	33376
#	50767
#	74548
#	92056
#	106836
#	120696
#	142704
#	164610
#	181058
#	200542
#	221350
#	246101
#	264676
#	290260
#
# Disc length: 3882 seconds
#
# Revision: 0
# Processed by: cddbd v1.5.1PL0 Copyright (c) Steve Scherf et al.
# Submitted via: audiograbber 1.83.01
#
DISCID=e70f2810
DTITLE=Sound Choice - Sc8897
DYEAR=2004
DGENRE=karaoke
TTITLE0=Shania Twain and Billy Currington - Party For Two (Radio Version
TTITLE1=Gary Allen - Noting On But The Radio
TTITLE2=Reba McEntire - He Gets That From Me
TTITLE3=Tim McGraw - Back When
TTITLE4=Tim McGraw - My Old Friend
TTITLE5=Gretchen Wilson - When It Rains
TTITLE6=Alan Jackson - When It Rains
TTITLE7=Kenny Chesney - The Woman With You
TTITLE8=Tim McGraw - Drugs Or Jesus
TTITLE9=Jimmy Buffet and Toby Keith - Piece Of Work
TTITLE10=Cledus T. Judd and Toby Keith - I Love Nascar
TTITLE11=Big and Rich - Holy Water
TTITLE12=Gretchen Wilson - Pocohantas Proud
TTITLE13=Joe Diffie - If I Could Only Bring You Back
TTITLE14=LeAnn Rimes - Nothin 'Bout Love Makes Sense
TTITLE15=data track - Data Track
EXTD=
EXTT0=
EXTT1=
EXTT2=
EXTT3=
EXTT4=
EXTT5=
EXTT6=
EXTT7=
EXTT8=
EXTT9=
EXTT10=
EXTT11=
EXTT12=
EXTT13=
EXTT14=
EXTT15=
PLAYORDER=
